<svg width="114" height="26" viewBox="0 0 114 26" fill="none" xmlns="http://www.w3.org/2000/svg">
<path d="M24.6 0.359999V25H19.224V15.08H18.264V24.68H12.888V0.679998H18.264V10.28H19.224V0.359999H24.6ZM11.608 24.04H0.92V0.999998H5.624V8.2H6.904V0.999998H11.608V24.04ZM6.904 12.68H5.624V19.56H6.904V12.68ZM50.8513 0.743999V4.04H53.2513V8.424H50.8513V11.56H44.8673V0.743999H50.8513ZM28.4513 11.272V0.999998H42.0833V5.096H34.4673V7.208H42.7233V11.272H28.4513ZM50.8513 20.52H35.1073V21.48H51.1713V25H29.0913V17H44.8673V16.04H29.0913V12.52H50.8513V20.52ZM102.726 0.679998V5.288H105.126V9.768H102.726V14.28H97.6703V0.679998H102.726ZM96.4543 14.12H80.3263V0.999998H84.9023V3.528H86.0863V0.999998H90.6623V3.528H91.8783V0.999998H96.4543V14.12ZM86.0863 9.96V7.688H84.9023V9.96H86.0863ZM91.8783 7.688H90.6623V9.96H91.8783V7.688ZM102.79 20.072C102.79 21.5013 102.31 22.6853 101.35 23.624C100.412 24.5413 99.2169 25 97.7663 25H86.0543C84.6036 25 83.3983 24.5413 82.4383 23.624C81.4996 22.6853 81.0303 21.5013 81.0303 20.072C81.0303 18.6427 81.4996 17.4693 82.4383 16.552C83.3983 15.6133 84.6036 15.144 86.0543 15.144H97.7663C99.2169 15.144 100.412 15.6133 101.35 16.552C102.31 17.4693 102.79 18.6427 102.79 20.072ZM96.1663 19.464H87.6543C87.4836 19.464 87.3343 19.528 87.2063 19.656C87.0996 19.7627 87.0463 19.9013 87.0463 20.072C87.0463 20.2427 87.0996 20.392 87.2063 20.52C87.3343 20.6267 87.4836 20.68 87.6543 20.68H96.1663C96.3369 20.68 96.4756 20.6267 96.5823 20.52C96.7103 20.392 96.7743 20.2427 96.7743 20.072C96.7743 19.9013 96.7103 19.7627 96.5823 19.656C96.4756 19.528 96.3369 19.464 96.1663 19.464ZM107.205 12.2L107.045 0.999998H113.061L112.901 12.2L112.581 17.704H107.525L107.205 12.2ZM110.053 19.304C110.906 19.304 111.61 19.5813 112.165 20.136C112.741 20.6907 113.029 21.416 113.029 22.312C113.029 23.208 112.741 23.9333 112.165 24.488C111.61 25.0427 110.906 25.32 110.053 25.32C109.2 25.32 108.485 25.032 107.909 24.456C107.333 23.88 107.045 23.1653 107.045 22.312C107.045 21.416 107.333 20.6907 107.909 20.136C108.485 19.5813 109.2 19.304 110.053 19.304Z" fill="#212121"/>
<path d="M76.482 25H69.25L63.394 16.488C63.2873 16.3387 63.202 16.1147 63.138 15.816C63.074 15.5173 63.0313 15.1227 63.01 14.632H62.85V25H55.17V0.999998H62.402L68.258 9.512C68.3647 9.66133 68.45 9.88533 68.514 10.184C68.578 10.4827 68.6207 10.8773 68.642 11.368H68.802V0.999998H76.482V25Z" fill="#4BD72F"/>
</svg>
