<svg width="116" height="24" viewBox="0 0 116 24" fill="none" xmlns="http://www.w3.org/2000/svg">
<path d="M22.1 0.199998V3.05H24.35V7.16H22.1V10.4H16.49V0.199998H22.1ZM1.1 10.4L0.5 6.8C2.62 6.8 4.36 6.6 5.72 6.2C7.08 5.8 7.76 5.18 7.76 4.34H1.1V0.499998H13.91C13.91 3.56 13.4 5.8 12.38 7.22C11.38 8.64 10.03 9.53 8.33 9.89C6.65 10.23 4.24 10.4 1.1 10.4ZM1.7 11.18H22.1V14.42H7.34V15.56H21.8V18.65H7.34V19.76H22.1V23H1.7V11.18ZM41.5618 0.199998H47.2018V23H41.5618V0.199998ZM32.8618 0.439999C35.0618 0.439999 36.7318 1.02 37.8718 2.18C39.0118 3.34 39.5818 5.04 39.5818 7.28V15.26C39.5818 17.5 39.0118 19.2 37.8718 20.36C36.7318 21.52 35.0618 22.1 32.8618 22.1C30.6618 22.1 28.9918 21.52 27.8518 20.36C26.7118 19.2 26.1418 17.5 26.1418 15.26V7.28C26.1418 5.04 26.7118 3.34 27.8518 2.18C28.9918 1.02 30.6618 0.439999 32.8618 0.439999ZM32.8618 4.94C32.1218 4.94 31.7518 5.32 31.7518 6.08V16.46C31.7518 17.22 32.1218 17.6 32.8618 17.6C33.6018 17.6 33.9718 17.22 33.9718 16.46V6.08C33.9718 5.32 33.6018 4.94 32.8618 4.94Z" fill="#4BD72F"/>
<path d="M75.2239 0.199998H80.8639V14.27H75.2239V9.41H73.4239V4.91H75.2239V0.199998ZM59.8039 13.67V0.439999H72.8239V13.67H59.8039ZM65.1439 9.17H67.4839V4.97H65.1439V9.17ZM80.8639 23H75.2239V19.85H60.4039V15.35L80.8639 15.32V23ZM105.472 8.87H107.722V13.37H105.472V23H99.8319V0.199998H105.472V8.87ZM93.8319 5.87C93.8319 8.25 94.0319 10.3 94.4319 12.02C94.8319 13.72 95.3819 15.03 96.0819 15.95C96.7819 16.85 97.5819 17.35 98.4819 17.45L97.2819 22.1C96.2019 22.02 95.1219 21.63 94.0419 20.93C92.9619 20.23 92.0119 19.2 91.1919 17.84C90.3519 19.2 89.3919 20.23 88.3119 20.93C87.2319 21.63 86.1519 22.02 85.0719 22.1L83.8719 17.45C85.4719 17.31 86.6419 16.28 87.3819 14.36C88.1419 12.44 88.5219 9.61 88.5219 5.87V5H84.4719V0.499998H97.8519V5H93.8319V5.87ZM109.671 11L109.521 0.499998H115.161L115.011 11L114.711 16.16H109.971L109.671 11ZM112.341 17.66C113.141 17.66 113.801 17.92 114.321 18.44C114.861 18.96 115.131 19.64 115.131 20.48C115.131 21.32 114.861 22 114.321 22.52C113.801 23.04 113.141 23.3 112.341 23.3C111.541 23.3 110.871 23.03 110.331 22.49C109.791 21.95 109.521 21.28 109.521 20.48C109.521 19.64 109.791 18.96 110.331 18.44C110.871 17.92 111.541 17.66 112.341 17.66Z" fill="#212121"/>
</svg>
